<?xml version="1.0" encoding="UTF-8"?>
<svg xmlns="http://www.w3.org/2000/svg" xmlns:xlink="http://www.w3.org/1999/xlink" width="0" height="0">
  <symbol xmlns="http://www.w3.org/2000/svg" viewBox="0 0 42 33" id="youtube">
    <g id="youtube">
      <path id="Vector" fill="none" d="M40.112 6.19136C39.8841 5.28269 39.4378 4.4542 38.8178 3.78882C38.1978 3.12343 37.4258 2.6445 36.579 2.39994C34.265 1.44055 11.8472 0.970516 5.34322 2.42677C4.49637 2.67142 3.72428 3.15052 3.10424 3.8161C2.48419 4.48169 2.03797 5.3104 1.81024 6.21926C0.765246 11.1375 0.686247 21.7702 1.83624 26.7989C2.06412 27.7076 2.51042 28.5361 3.13045 29.2015C3.75048 29.8668 4.52249 30.3458 5.36922 30.5903C9.95219 31.7225 31.7401 31.8813 36.605 30.5903C37.4518 30.3458 38.2238 29.8668 38.8438 29.2015C39.4638 28.5361 39.9101 27.7076 40.138 26.7989C41.252 21.4407 41.331 11.4669 40.112 6.19136V6.19136Z" stroke-width="2" stroke-linecap="round" stroke-linejoin="round"></path>
      <path id="Vector_2" d="M27 17L17 10.5V23.5L27 17Z" stroke-width="2" stroke-linecap="round" stroke-linejoin="round"></path>
    </g>
  </symbol>
  <symbol  xmlns="http://www.w3.org/2000/svg" viewBox="0 0 38 33" id="twitter">
    <path id="twitter" fill="none" d="M37 1.51681C37 1.51681 33.6978 3.50971 31.8618 4.07482C30.8763 2.91704 29.5665 2.09645 28.1097 1.724C26.6528 1.35156 25.1192 1.44525 23.7161 1.99239C22.3131 2.53953 21.1084 3.51373 20.2649 4.78323C19.4214 6.05272 18.9799 7.55627 19 9.09051V10.7624C16.1243 10.8386 13.2748 10.187 10.7053 8.86555C8.13576 7.54414 5.92597 5.59396 4.27273 3.18871C4.27273 3.18871 -2.27273 18.2358 12.4545 24.9234C9.0845 27.2606 5.06989 28.4326 1 28.2672C15.7273 36.6267 33.7273 28.2672 33.7273 9.04035C33.7273 8.57556 33.6815 8.11078 33.5964 7.65268C35.2655 5.97075 37 1.51681 37 1.51681Z" stroke-width="2" stroke-linecap="round" stroke-linejoin="round"></path>
  </symbol>
  <symbol  xmlns="http://www.w3.org/2000/svg" viewBox="0 0 23 31" id="pinterest">
    <path id="pinterest" stroke="none" d="M12.2193 0.5C6.07321 0.5 0 4.61108 0 11.2648C0 15.4961 2.37197 17.9002 3.80953 17.9002C4.40277 17.9002 4.74395 16.2414 4.74395 15.773C4.74395 15.2143 3.3246 14.0238 3.3246 11.6975C3.3246 6.86521 6.99037 3.43882 11.7343 3.43882C15.8132 3.43882 18.832 5.76507 18.832 10.0387C18.832 13.2304 17.5564 19.2167 13.423 19.2167C11.9317 19.2167 10.6552 18.1349 10.6552 16.5847C10.6552 14.3123 12.2365 12.113 12.2365 9.76845C12.2365 5.79008 6.61182 6.51132 6.61182 11.3196C6.61182 12.3293 6.73736 13.4468 7.18684 14.3671C6.35976 17.9377 4.67111 23.2567 4.67111 26.935C4.67111 28.0707 4.83308 29.1891 4.94041 30.3248C5.14359 30.5537 5.042 30.5297 5.35347 30.4152C8.37235 26.2676 8.26501 25.4569 9.63069 20.0293C10.3677 21.4362 12.272 22.1931 13.7814 22.1931C20.1421 22.1931 23 15.9721 23 10.3647C23 4.39663 17.8602 0.501923 12.2183 0.501923L12.2193 0.5Z"></path>
  </symbol>
  <symbol  xmlns="http://www.w3.org/2000/svg" viewBox="0 0 15 31" id="facebook">
    <path id="facebook" stroke="none" d="M3.82915 30.5V16.4231H0V11.3548H3.82915V7.02575C3.82915 3.62396 6.09105 0.5 11.3029 0.5C13.4131 0.5 14.9736 0.69665 14.9736 0.69665L14.8506 5.42963C14.8506 5.42963 13.2592 5.41457 11.5227 5.41457C9.64319 5.41457 9.34207 6.25652 9.34207 7.65395V11.3548H15L14.7538 16.4231H9.34207V30.5H3.82915Z"></path>
  </symbol>
  <symbol  xmlns="http://www.w3.org/2000/svg" viewBox="0 0 30 31" id="instagram">
    <path id="instagram" stroke="none" d="M15 8.45918C13.6075 8.45918 12.2462 8.87212 11.0883 9.64577C9.93048 10.4194 9.02804 11.5191 8.49513 12.8056C7.96223 14.0921 7.8228 15.5078 8.09447 16.8736C8.36614 18.2394 9.03672 19.4939 10.0214 20.4786C11.0061 21.4633 12.2606 22.1339 13.6264 22.4055C14.9922 22.6772 16.4079 22.5378 17.6944 22.0049C18.9809 21.472 20.0806 20.5695 20.8542 19.4117C21.6279 18.2538 22.0408 16.8925 22.0408 15.5C22.0408 13.6327 21.299 11.8418 19.9786 10.5214C18.6582 9.20098 16.8673 8.45918 15 8.45918ZM15 20.7041C13.9707 20.7041 12.9646 20.3989 12.1088 19.827C11.253 19.2552 10.5859 18.4424 10.1921 17.4915C9.79817 16.5406 9.69511 15.4942 9.89591 14.4847C10.0967 13.4752 10.5924 12.548 11.3202 11.8202C12.048 11.0924 12.9752 10.5967 13.9847 10.3959C14.9942 10.1951 16.0406 10.2982 16.9915 10.6921C17.9424 11.0859 18.7552 11.753 19.327 12.6088C19.8989 13.4646 20.2041 14.4707 20.2041 15.5C20.2 16.879 19.6505 18.2003 18.6754 19.1754C17.7003 20.1505 16.379 20.7 15 20.7041ZM21.7347 0.5H8.26531C6.07321 0.5 3.9709 1.37081 2.42085 2.92085C0.870807 4.4709 0 6.57321 0 8.76531V22.2347C0 24.4268 0.870807 26.5291 2.42085 28.0791C3.9709 29.6292 6.07321 30.5 8.26531 30.5H21.7347C23.9268 30.5 26.0291 29.6292 27.5791 28.0791C29.1292 26.5291 30 24.4268 30 22.2347V8.76531C30 6.57321 29.1292 4.4709 27.5791 2.92085C26.0291 1.37081 23.9268 0.5 21.7347 0.5ZM28.1633 22.2347C28.1633 23.9397 27.486 25.5748 26.2804 26.7804C25.0748 27.986 23.4397 28.6633 21.7347 28.6633H8.26531C6.56034 28.6633 4.92521 27.986 3.71962 26.7804C2.51403 25.5748 1.83673 23.9397 1.83673 22.2347V8.76531C1.83673 7.06034 2.51403 5.42521 3.71962 4.21962C4.92521 3.01403 6.56034 2.33673 8.26531 2.33673H21.7347C23.4397 2.33673 25.0748 3.01403 26.2804 4.21962C27.486 5.42521 28.1633 7.06034 28.1633 8.76531V22.2347ZM24.4898 7.54082C24.4898 7.84354 24.4 8.13947 24.2318 8.39118C24.0637 8.64289 23.8246 8.83907 23.5449 8.95492C23.2652 9.07077 22.9575 9.10108 22.6606 9.04202C22.3637 8.98296 22.0909 8.83718 21.8769 8.62312C21.6628 8.40906 21.517 8.13633 21.458 7.83942C21.3989 7.54251 21.4292 7.23476 21.5451 6.95508C21.6609 6.67539 21.8571 6.43634 22.1088 6.26816C22.3605 6.09997 22.6565 6.0102 22.9592 6.0102C23.3651 6.0102 23.7544 6.17146 24.0415 6.45851C24.3285 6.74556 24.4898 7.13487 24.4898 7.54082Z"></path>
  </symbol>
  <symbol xmlns="http://www.w3.org/2000/svg" viewBox="0 0 150 30" id="logo">
    <g id="logo">
      <g id="logo">
        <path d="M0.969828 23.1675C0.323276 21.7539 0 20.0916 0 18.1806C0 16.2696 0.309806 14.5812 0.929418 13.1152C1.57597 11.623 2.45151 10.3403 3.55603 9.26702C5.89978 7.04188 8.83621 5.92932 12.3653 5.92932C16.056 5.92932 19.1002 6.75393 21.4978 8.40314C24.1918 10.288 25.5388 12.9843 25.5388 16.4921C25.5388 20.8377 24.5016 24.0445 22.4273 26.1126C20.3798 28.1806 17.174 29.2147 12.8098 29.2147C6.74838 29.2147 2.80172 27.199 0.969828 23.1675ZM3.31358 17.3953C3.31358 23.5733 6.5194 26.6623 12.931 26.6623C16.083 26.6623 18.6422 25.7461 20.6088 23.9136C22.5754 22.1073 23.5587 19.7382 23.5587 16.8063C23.5587 14.0576 22.3869 11.9634 20.0431 10.5236C18.0496 9.26702 15.5307 8.63874 12.4865 8.63874C10.062 8.63874 7.92026 9.48953 6.06142 11.1911C4.22953 12.8927 3.31358 14.9607 3.31358 17.3953Z"></path>
        <path d="M43.6827 21.1649C43.6827 18.0497 43.5075 15.7592 43.1573 14.2932C43.3728 13.9005 43.0496 13.7042 42.1875 13.7042C41.2715 13.7042 40.0862 13.9267 38.6315 14.3717C37.1767 14.8168 35.9914 15.2618 35.0754 15.7068C32.8933 16.7277 31.681 17.7225 31.4386 18.6911V29.3717H28.7311C28.3809 28.4817 28.2058 25.9817 28.2058 21.8717C28.2058 18.2068 28.2732 15.5105 28.4079 13.7827C28.5695 12.055 28.6907 11.0733 28.7716 10.8377C29.472 10.3927 30.0377 10.1702 30.4688 10.1702C31.1422 10.1702 31.479 10.9424 31.479 12.4869C31.479 13.089 31.4386 13.678 31.3578 14.2539C31.3039 14.8037 31.2769 15.1832 31.2769 15.3927C35.6412 12.2775 39.0221 10.7199 41.4197 10.7199C44.1406 10.7199 45.6897 12.8534 46.0668 17.1204C46.2284 18.6126 46.3093 20.6806 46.3093 23.3246L46.2689 26.4267C46.2689 27.5785 46.2958 28.6911 46.3497 29.7644C46.0803 29.9215 45.8648 30 45.7031 30C45.6223 29.9738 45.4472 29.9346 45.1778 29.8822C44.9084 29.8298 44.5582 29.7906 44.1272 29.7644C43.8578 28.7173 43.7096 27.6571 43.6827 26.5838C43.6557 25.4843 43.6422 24.4764 43.6422 23.5602L43.6827 21.1649Z"></path>
        <path d="M78.354 23.2461C79.701 19.0052 81.2635 11.2565 83.0415 0C84.7387 0 85.6277 0.510471 85.7085 1.53141C85.7355 1.84555 85.7489 2.06806 85.7489 2.19895C85.7759 2.32984 85.7355 2.78796 85.6277 3.5733C85.5199 4.33246 85.3583 5.40576 85.1428 6.79319C84.9542 8.18063 84.7117 9.79058 84.4154 11.623C84.1191 13.4555 83.7823 15.3665 83.4052 17.356C82.4892 22.0419 81.5463 25.9948 80.5765 29.2147C79.6067 29.8691 78.8524 29.9738 78.3136 29.5288C78.0711 29.2932 77.8556 28.9791 77.667 28.5864C77.4784 28.1675 77.2629 27.6963 77.0205 27.1728C76.6703 26.7277 76.0237 25.5497 75.0808 23.6387C74.1379 21.7277 73.3701 20.2094 72.7775 19.0838C72.2117 17.9581 71.6595 16.911 71.1207 15.9424C69.8815 13.7696 68.8443 12.5 68.0092 12.1335C67.0393 13.5995 65.3152 17.6178 62.8367 24.1885C62.4057 25.3403 62.0151 26.4136 61.6649 27.4084C61.3147 28.377 61.0183 29.1623 60.7759 29.7644L58.2705 29.6466L48.1681 6.95026C48.1142 6.81937 48.0873 6.68848 48.0873 6.55759C48.0873 6.4267 48.1277 6.29581 48.2085 6.16492C48.3163 6.03403 48.4914 5.91623 48.7338 5.81152C49.1918 5.65445 49.6498 5.57592 50.1078 5.57592C50.5657 5.57592 50.889 5.66754 51.0776 5.85079C51.2931 6.00785 51.4547 6.21728 51.5625 6.47906C51.6972 6.74084 51.805 7.0288 51.8858 7.34293C51.9666 7.65707 52.1148 8.06283 52.3303 8.56021C52.5727 9.05759 52.9095 9.79058 53.3405 10.7592C53.7985 11.7277 54.2834 12.7487 54.7953 13.822C55.3071 14.8953 55.819 15.9686 56.3308 17.0419C56.8427 18.089 57.3276 19.0576 57.7856 19.9476C58.7554 21.911 59.3615 23.0105 59.604 23.2461C62.729 15.7592 64.6552 11.322 65.3825 9.93456C66.1099 8.52094 66.5679 7.65707 66.7565 7.34293C67.0528 6.89791 67.2818 6.67539 67.4434 6.67539C68.6018 6.67539 70.555 9.18848 73.3028 14.2147C74.0571 15.5497 74.7575 16.8325 75.4041 18.0628C76.9935 21.0471 77.9768 22.7749 78.354 23.2461Z"></path>
        <path d="M103.408 23.2461C101.387 26.3351 98.6934 28.2461 95.326 28.9791C94.5447 29.1361 93.8308 29.2147 93.1843 29.2147C92.5647 29.2147 92.0393 29.2147 91.6083 29.2147C91.2042 29.1885 90.7462 29.123 90.2344 29.0183C89.7225 28.9136 89.2511 28.7435 88.82 28.5079C87.8233 27.9581 87.3249 27.1859 87.3249 26.1911C87.2171 25.7199 87.1633 25.1963 87.1633 24.6204C87.1633 24.0183 87.298 23.233 87.5673 22.2644C87.8367 21.2958 88.3217 20.2487 89.0221 19.123C89.7495 17.9974 90.625 16.9634 91.6487 16.0209C93.7769 14.0314 96.0803 12.7487 98.5587 12.1728C99.2861 12.0157 99.9461 11.9372 100.539 11.9372C101.158 11.9372 101.711 11.9764 102.196 12.055C103.758 12.055 104.809 13.089 105.348 15.1571C105.698 16.466 105.9 18.2984 105.954 20.6544C106.034 22.9843 106.102 24.7906 106.156 26.0733C106.237 27.3298 106.412 28.4817 106.681 29.5288H104.297C104.189 28.822 104.108 28.1937 104.054 27.644C104.001 27.0942 103.947 26.5838 103.893 26.1126C103.758 25.0131 103.596 24.0576 103.408 23.2461ZM103.246 17.1597C103.246 15.6414 102.478 14.8822 100.943 14.8822C100.754 14.856 100.566 14.8429 100.377 14.8429C98.4106 14.8429 96.3362 15.7592 94.1541 17.5916C93.1304 18.4293 92.2548 19.3717 91.5275 20.4188C90.4499 21.911 89.9111 23.2461 89.9111 24.4241C89.9111 25.9686 90.827 26.8848 92.6589 27.1728C95.0835 27.1204 97.4003 26.0471 99.6094 23.9529C100.552 23.0366 101.334 22.0419 101.953 20.9686C102.815 19.5288 103.246 18.2592 103.246 17.1597Z" ></path>
        <path d="M108.944 14.5681C108.89 14.4372 108.863 14.2932 108.863 14.1361C108.863 13.9529 108.93 13.7173 109.065 13.4293C109.2 13.1414 109.388 12.8927 109.631 12.6832C109.9 12.4738 110.183 12.3822 110.48 12.4084C110.803 12.4084 111.059 12.5916 111.247 12.9581L118.036 25.2094C118.252 24.8953 118.588 24.3194 119.046 23.4817C119.531 22.6178 120.07 21.6492 120.663 20.5759C121.282 19.5026 121.915 18.3901 122.562 17.2382C123.235 16.0602 123.855 14.9869 124.421 14.0183C125.714 11.7932 126.482 10.6806 126.724 10.6806C127.29 10.6806 127.694 10.8901 127.936 11.3089C128.206 11.7016 128.341 12.0026 128.341 12.212C128.341 12.4215 128.341 12.5654 128.341 12.644C126.832 15.8377 125.431 18.7827 124.138 21.4791C122.872 24.1754 122.023 25.9293 121.592 26.7408C121.188 27.5262 120.824 28.1544 120.501 28.6257C119.935 29.4372 119.383 29.8429 118.844 29.8429C118.305 29.8429 117.686 29.4372 116.985 28.6257C116.285 27.788 115.49 26.6754 114.601 25.288C113.039 22.7749 111.153 19.2016 108.944 14.5681Z"></path>
        <path d="M138.281 27.0157C140.652 27.0157 144.221 25.9686 148.99 23.8743C149.286 23.8743 149.529 23.9791 149.717 24.1885C149.906 24.3717 150 24.5942 150 24.856C148.922 26.6361 146.862 28.0236 143.817 29.0183C140.773 30.0131 137.931 30.1832 135.291 29.5288C132.301 28.7696 130.482 27.1335 129.836 24.6204C129.782 24.123 129.755 23.4555 129.755 22.6178C129.755 21.7801 129.97 20.6806 130.401 19.3194C130.859 17.9319 131.627 16.623 132.705 15.3927C133.782 14.1623 135.048 13.1937 136.503 12.4869C137.958 11.7801 139.507 11.4267 141.15 11.4267C142.713 11.4267 144.464 11.9503 146.404 12.9974C147.32 13.4948 148.047 14.0576 148.586 14.6859C149.124 15.3141 149.394 15.9555 149.394 16.6099C149.394 16.7932 149.38 16.9764 149.353 17.1597C149.3 18.7565 148.505 19.7644 146.969 20.1832C146.296 20.3665 145.515 20.4581 144.626 20.4581L138.807 20.2225C136.867 20.2225 135.385 20.6283 134.362 21.4398C133.769 21.8848 133.351 22.5524 133.109 23.4424C133.782 25.8246 135.506 27.0157 138.281 27.0157ZM145.474 14.8822C144.881 14.4634 144.262 14.1623 143.615 13.9791C142.969 13.7958 142.43 13.7042 141.999 13.7042C141.568 13.7042 140.867 13.8482 139.898 14.1361C138.928 14.3979 138.066 14.699 137.311 15.0393C135.453 15.877 134.523 16.7539 134.523 17.6702C136.678 17.8534 138.295 17.945 139.372 17.945C142.363 17.945 144.383 17.6963 145.434 17.199C146.08 16.9372 146.404 16.6099 146.404 16.2173C146.404 15.7461 146.094 15.301 145.474 14.8822Z"></path>
      </g>
    </g>
  </symbol>
</svg>